<?xml version="1.0" encoding="UTF-8" standalone="no"?>
<!DOCTYPE svg PUBLIC "-//W3C//DTD SVG 1.1//EN"
 "http://www.w3.org/Graphics/SVG/1.1/DTD/svg11.dtd">
<!-- Generated by graphviz version 2.40.1 (20161225.0304)
 -->
<!-- Title: G Pages: 1 -->
<svg width="432pt" height="218pt"
 viewBox="0.00 0.00 431.55 218.00" xmlns="http://www.w3.org/2000/svg" xmlns:xlink="http://www.w3.org/1999/xlink">
<g id="graph0" class="graph" transform="scale(1 1) rotate(0) translate(4 214)">
<title>G</title>
<polygon fill="#ffffff" stroke="transparent" points="-4,4 -4,-214 427.5461,-214 427.5461,4 -4,4"/>
<!-- directed -->
<g id="node1" class="node">
<title>directed</title>
<ellipse fill="none" stroke="#000000" cx="290.5461" cy="-192" rx="50.0912" ry="18"/>
<text text-anchor="middle" x="290.5461" y="-188.3" font-family="Times,serif" font-size="14.00" fill="#000000">directed</text>
</g>
<!-- acyclic -->
<g id="node2" class="node">
<title>acyclic</title>
<ellipse fill="none" stroke="#000000" cx="43.5461" cy="-105" rx="43.5923" ry="18"/>
<text text-anchor="middle" x="43.5461" y="-101.3" font-family="Times,serif" font-size="14.00" fill="#000000">acyclic</text>
</g>
<!-- directed&#45;&gt;acyclic -->
<g id="edge1" class="edge">
<title>directed&#45;&gt;acyclic</title>
<path fill="none" stroke="#000000" d="M241.4885,-188.1936C173.4682,-182.4158 57.373,-170.5498 44.5461,-156 39.1107,-149.8345 37.4851,-141.436 37.6212,-133.2341"/>
<polygon fill="#000000" stroke="#000000" points="41.1192,-133.4195 38.5816,-123.1331 34.1507,-132.7569 41.1192,-133.4195"/>
<text text-anchor="middle" x="160.5461" y="-144.8" font-family="Times,serif" font-size="14.00" fill="#000000">directed: edges have a direction</text>
</g>
<!-- graph -->
<g id="node3" class="node">
<title>graph</title>
<ellipse fill="none" stroke="#000000" cx="290.5461" cy="-18" rx="38.1938" ry="18"/>
<text text-anchor="middle" x="290.5461" y="-14.3" font-family="Times,serif" font-size="14.00" fill="#000000">graph</text>
</g>
<!-- directed&#45;&gt;graph -->
<g id="edge5" class="edge">
<title>directed&#45;&gt;graph</title>
<path fill="none" stroke="#000000" d="M290.5461,-173.7078C290.5461,-143.3436 290.5461,-82.3226 290.5461,-46.3464"/>
<polygon fill="#000000" stroke="#000000" points="294.0462,-46.0471 290.5461,-36.0471 287.0462,-46.0471 294.0462,-46.0471"/>
</g>
<!-- acyclic&#45;&gt;graph -->
<g id="edge2" class="edge">
<title>acyclic&#45;&gt;graph</title>
<path fill="none" stroke="#000000" d="M86.4116,-101.2808C138.9752,-96.0911 224.4327,-85.425 251.5461,-69 261.3716,-63.0479 269.6068,-53.6223 275.9397,-44.4848"/>
<polygon fill="#000000" stroke="#000000" points="278.9699,-46.2431 281.4185,-35.9351 273.0762,-42.4663 278.9699,-46.2431"/>
</g>
<!-- error -->
<g id="node4" class="node">
<title>error</title>
<ellipse fill="none" stroke="#000000" cx="41.5461" cy="-18" rx="34.394" ry="18"/>
<text text-anchor="middle" x="41.5461" y="-14.3" font-family="Times,serif" font-size="14.00" fill="#000000">error</text>
</g>
<!-- acyclic&#45;&gt;error -->
<g id="edge3" class="edge">
<title>acyclic&#45;&gt;error</title>
<path fill="none" stroke="#ff0000" stroke-dasharray="5,2" d="M43.0085,-86.6866C42.8499,-81.0174 42.6824,-74.7506 42.5461,-69 42.2902,-58.1989 42.0511,-46.1099 41.8709,-36.4136"/>
<text text-anchor="middle" x="147.0461" y="-57.8" font-family="Times,serif" font-size="14.00" fill="#ff0000">error: edges need a direction</text>
</g>
<!-- graph&#45;&gt;directed -->
<g id="edge4" class="edge">
<title>graph&#45;&gt;directed</title>
<path fill="none" stroke="#ff0000" stroke-dasharray="5,2" d="M299.0208,-35.9279C301.2805,-41.5814 303.4086,-47.9363 304.5461,-54 312.9049,-98.5561 312.9049,-111.4439 304.5461,-156 304.0129,-158.8424 303.262,-161.7487 302.382,-164.6168"/>
<polygon fill="#ff0000" stroke="#ff0000" points="299.0725,-163.4774 299.0208,-174.0721 305.6682,-165.8221 299.0725,-163.4774"/>
<text text-anchor="middle" x="367.0461" y="-101.3" font-family="Times,serif" font-size="14.00" fill="#ff0000">error: no cycles</text>
</g>
</g>
</svg>
