<?xml version="1.0" encoding="UTF-8" standalone="no"?>
<!DOCTYPE svg PUBLIC "-//W3C//DTD SVG 1.1//EN"
 "http://www.w3.org/Graphics/SVG/1.1/DTD/svg11.dtd">
<!-- Generated by graphviz version 2.40.1 (20161225.0304)
 -->
<!-- Title: D Pages: 1 -->
<svg width="951pt" height="149pt"
 viewBox="0.00 0.00 950.87 149.43" xmlns="http://www.w3.org/2000/svg" xmlns:xlink="http://www.w3.org/1999/xlink">
<g id="graph0" class="graph" transform="scale(1 1) rotate(0) translate(4 145.4325)">
<title>D</title>
<!-- HEAD -->
<g id="node1" class="node">
<title>HEAD</title>
<polygon fill="#d3d3d3" stroke="transparent" points="8,-95.9325 8,-116.9325 188,-116.9325 188,-95.9325 8,-95.9325"/>
<polygon fill="none" stroke="#000000" points="8,-95.9325 8,-116.9325 188,-116.9325 188,-95.9325 8,-95.9325"/>
<text text-anchor="start" x="42" y="-103.7325" font-family="Times,serif" font-size="14.00" fill="#000000">file: </text>
<text text-anchor="start" x="74" y="-103.7325" font-family="Times,serif" font-weight="bold" font-size="14.00" fill="#000000">.git/HEAD</text>
<polygon fill="none" stroke="#000000" points="8,-74.9325 8,-95.9325 188,-95.9325 188,-74.9325 8,-74.9325"/>
<text text-anchor="start" x="11" y="-82.7325" font-family="Times,serif" font-size="14.00" fill="#000000">ref: </text>
<text text-anchor="start" x="41" y="-82.7325" font-family="Times,serif" font-weight="bold" font-size="14.00" fill="#000000">refs/heads/master</text>
</g>
<!-- master -->
<g id="node2" class="node">
<title>master</title>
<polygon fill="#d3d3d3" stroke="transparent" points="240,-73.9325 240,-94.9325 422,-94.9325 422,-73.9325 240,-73.9325"/>
<polygon fill="none" stroke="#000000" points="240,-73.9325 240,-94.9325 422,-94.9325 422,-73.9325 240,-73.9325"/>
<text text-anchor="start" x="243" y="-81.7325" font-family="Times,serif" font-size="14.00" fill="#000000">file: </text>
<text text-anchor="start" x="275" y="-81.7325" font-family="Times,serif" font-weight="bold" font-size="14.00" fill="#000000">refs/heads/master</text>
<polygon fill="none" stroke="#000000" points="240,-52.9325 240,-73.9325 422,-73.9325 422,-52.9325 240,-52.9325"/>
<text text-anchor="start" x="302" y="-60.7325" font-family="Times,serif" font-weight="bold" font-size="14.00" fill="#000000">0x1234</text>
</g>
<!-- HEAD&#45;&gt;master -->
<g id="edge1" class="edge">
<title>HEAD:content&#45;&gt;master:name</title>
<path fill="none" stroke="#000000" d="M188,-84.9325C207.3194,-84.9325 214.5265,-84.9325 229.8716,-84.9325"/>
<polygon fill="#000000" stroke="#000000" points="230,-88.4326 240,-84.9325 230,-81.4326 230,-88.4326"/>
</g>
<!-- cas -->
<g id="node4" class="node">
<title>cas</title>
<polygon fill="#d3d3d3" stroke="transparent" points="474.5,-115.9325 474.5,-136.9325 773.5,-136.9325 773.5,-115.9325 474.5,-115.9325"/>
<polygon fill="none" stroke="#000000" points="474.5,-115.9325 474.5,-136.9325 773.5,-136.9325 773.5,-115.9325 474.5,-115.9325"/>
<text text-anchor="start" x="517" y="-123.7325" font-family="Times,serif" font-weight="bold" font-size="14.00" fill="#000000">content addressed storage</text>
<polygon fill="#d3d3d3" stroke="transparent" points="474.5,-94.9325 474.5,-115.9325 538.5,-115.9325 538.5,-94.9325 474.5,-94.9325"/>
<polygon fill="none" stroke="#000000" points="474.5,-94.9325 474.5,-115.9325 538.5,-115.9325 538.5,-94.9325 474.5,-94.9325"/>
<text text-anchor="start" x="489.5" y="-102.7325" font-family="Times,serif" font-style="italic" font-size="14.00" fill="#000000">hash</text>
<polygon fill="#d3d3d3" stroke="transparent" points="538.5,-94.9325 538.5,-115.9325 773.5,-115.9325 773.5,-94.9325 538.5,-94.9325"/>
<polygon fill="none" stroke="#000000" points="538.5,-94.9325 538.5,-115.9325 773.5,-115.9325 773.5,-94.9325 538.5,-94.9325"/>
<text text-anchor="start" x="627" y="-102.7325" font-family="Times,serif" font-style="italic" font-size="14.00" fill="#000000">Content</text>
<polygon fill="none" stroke="#000000" points="474.5,-73.9325 474.5,-94.9325 538.5,-94.9325 538.5,-73.9325 474.5,-73.9325"/>
<text text-anchor="start" x="479.5" y="-80.7325" font-family="Times,serif" font-size="14.00" fill="#000000">0x4711</text>
<polygon fill="none" stroke="#000000" points="538.5,-73.9325 538.5,-94.9325 773.5,-94.9325 773.5,-73.9325 538.5,-73.9325"/>
<text text-anchor="start" x="590.5" y="-80.7325" font-family="Times,serif" font-size="14.00" fill="#000000">&#39;Please read me&#39; ..</text>
<polygon fill="none" stroke="#000000" points="474.5,-52.9325 474.5,-73.9325 538.5,-73.9325 538.5,-52.9325 474.5,-52.9325"/>
<text text-anchor="start" x="477.5" y="-60.7325" font-family="Times,serif" font-weight="bold" font-size="14.00" fill="#000000">0x1234</text>
<polygon fill="none" stroke="#000000" points="538.5,-52.9325 538.5,-73.9325 773.5,-73.9325 773.5,-52.9325 538.5,-52.9325"/>
<text text-anchor="start" x="577.5" y="-59.7325" font-family="Times,serif" font-size="14.00" fill="#000000">commit: &#39;1st commit&#39; </text>
<polygon fill="none" stroke="#000000" points="474.5,-31.9325 474.5,-52.9325 538.5,-52.9325 538.5,-31.9325 474.5,-31.9325"/>
<text text-anchor="start" x="480.5" y="-38.7325" font-family="Times,serif" font-size="14.00" fill="#000000">0xabcd</text>
<polygon fill="none" stroke="#000000" points="538.5,-31.9325 538.5,-52.9325 773.5,-52.9325 773.5,-31.9325 538.5,-31.9325"/>
<text text-anchor="start" x="541.5" y="-38.7325" font-family="Times,serif" font-size="14.00" fill="#000000">tree: &#39;0x4711 T README.txt...&#39; </text>
</g>
<!-- master&#45;&gt;cas -->
<g id="edge2" class="edge">
<title>master:hash&#45;&gt;cas:port2</title>
<path fill="none" stroke="#000000" d="M422,-62.9325C441.5052,-62.9325 448.7816,-62.9325 464.2742,-62.9325"/>
<polygon fill="#000000" stroke="#000000" points="464.5,-66.4326 474.5,-62.9325 464.5,-59.4326 464.5,-66.4326"/>
</g>
<!-- commit -->
<g id="node3" class="node">
<title>commit</title>
<ellipse fill="none" stroke="#000000" cx="879.9325" cy="-62.9325" rx="62.8651" ry="62.8651"/>
<text text-anchor="start" x="852.4325" y="-66.7325" font-family="Times,serif" font-size="14.00" fill="#000000">commit</text>
<text text-anchor="start" x="843.4325" y="-52.7325" font-family="Times,serif" font-weight="bold" font-size="14.00" fill="#000000">0x1234...</text>
</g>
<!-- cas&#45;&gt;commit -->
<g id="edge3" class="edge">
<title>cas:port2b&#45;&gt;commit</title>
<path fill="none" stroke="#000000" d="M773.5,-62.9325C784.2518,-62.9325 795.6146,-62.9325 806.7551,-62.9325"/>
<polygon fill="#000000" stroke="#000000" points="806.8998,-66.4326 816.8998,-62.9325 806.8998,-59.4326 806.8998,-66.4326"/>
</g>
</g>
</svg>
