<?xml version="1.0" encoding="utf-8"?>
<svg xmlns="http://www.w3.org/2000/svg" viewBox="0 0 252.21 802.23">
  <path d="m 249.25 33.922 c 0 -19.583 -6.264 -30.625 -24.773 -30.625 l -196.73 -0.332 c -18.509 0 -24.773 11.04 -24.773 30.625 l 2.027 734.72 c 0 19.583 6.264 30.625 24.773 30.625 l 192.53 0.332 c 19.981 -0.164 26.595 -10.527 26.922 -28.471 l 0.027 -736.87 z" fill="#fff" stroke="#000" stroke-width="20"/>
  <g fill-rule="evenodd">
    <path d="m 208.75 655.56 a 83.74 83.74 0 0 0 -125.6 -72.52 83.74 83.74 0 0 0 0 145.03 83.74 83.74 0 0 0 125.6 -72.52 z" fill="#ffffffa0" stroke="#000" stroke-width="20"/>
    <path d="m 208.75 400.22 a 83.74 83.74 0 0 0 -125.6 -72.52 83.74 83.74 0 0 0 0 145.03 83.74 83.74 0 0 0 125.6 -72.52 z" fill="#e79c00" stroke="#000" stroke-width="20"/>
    <path d="M 208.75 142.88 A 83.74 83.74 0 0 0 83.14 70.37 a 83.74 83.74 0 0 0 0 145.03 83.74 83.74 0 0 0 125.6 -72.52 z" fill="#ffffffa0" stroke="#000" stroke-width="20"/>
  </g>
</svg>
